<svg width="17" height="17" viewBox="0 0 17 17" fill="none" xmlns="http://www.w3.org/2000/svg">
<g clip-path="url(#clip0_2708_1786)">
<path d="M6.77832 10.224C6.77832 11.084 7.43832 11.7773 8.25832 11.7773H9.93165C10.645 11.7773 11.225 11.1707 11.225 10.424C11.225 9.61065 10.8717 9.32399 10.345 9.13732L7.65832 8.20399C7.13165 8.01732 6.77832 7.73065 6.77832 6.91732C6.77832 6.17065 7.35832 5.56399 8.07165 5.56399H9.74499C10.565 5.56399 11.225 6.25732 11.225 7.11732M8.99699 4.67065V12.6707" stroke="#006BC9" stroke-linecap="round" stroke-linejoin="round"/>
<path d="M8.99723 15.3372C12.6792 15.3372 15.6639 12.3526 15.6639 8.67057C15.6639 4.98857 12.6792 2.00391 8.99723 2.00391C5.31523 2.00391 2.33057 4.98857 2.33057 8.67057C2.33057 12.3526 5.31523 15.3372 8.99723 15.3372Z" stroke="#006BC9" stroke-linecap="round" stroke-linejoin="round"/>
</g>
<defs>
<clipPath id="clip0_2708_1786">
<rect width="16" height="16" fill="white" transform="translate(0.99707 0.670654)"/>
</clipPath>
</defs>
</svg>
