<svg width="15" height="15" viewBox="0 0 15 15" fill="none" xmlns="http://www.w3.org/2000/svg">
<path d="M12.0959 14.5234H2.42753C1.09149 14.5234 0 13.4319 0 12.0959V2.42753C0 1.09149 1.09149 0 2.42753 0H12.0959C13.4319 0 14.5234 1.09149 14.5234 2.42753V12.0959C14.5234 13.4379 13.4379 14.5234 12.0959 14.5234Z" fill="#3D2C39"/>
<path d="M7.26488 10.9927C6.26882 10.9927 5.3324 10.605 4.6286 9.90117C3.9248 9.19736 3.53711 8.26094 3.53711 7.26488C3.53711 6.26882 3.9248 5.33241 4.6286 4.6286C5.3324 3.9248 6.26882 3.53711 7.26488 3.53711C8.26094 3.53711 9.19736 3.9248 9.90117 4.6286C10.605 5.33241 10.9927 6.26882 10.9927 7.26488C10.9927 8.26094 10.605 9.19736 9.90117 9.90117C9.1914 10.605 8.26094 10.9927 7.26488 10.9927ZM7.26488 4.33038C5.64852 4.33038 4.33038 5.64256 4.33038 7.26488C4.33038 8.88125 5.64256 10.1994 7.26488 10.1994C8.88125 10.1994 10.1994 8.88721 10.1994 7.26488C10.1934 5.64852 8.88125 4.33038 7.26488 4.33038Z" fill="#FFEEEF"/>
<path d="M11.7192 3.41441C12.1145 3.41441 12.4349 3.09396 12.4349 2.69866C12.4349 2.30336 12.1145 1.98291 11.7192 1.98291C11.3239 1.98291 11.0034 2.30336 11.0034 2.69866C11.0034 3.09396 11.3239 3.41441 11.7192 3.41441Z" fill="#FFEEEF"/>
</svg>
