<svg width="17" height="17" viewBox="0 0 17 17" fill="none" xmlns="http://www.w3.org/2000/svg">
<path d="M8.99699 9.62387C9.27014 9.62387 9.54062 9.57007 9.79297 9.46554C10.0453 9.36101 10.2746 9.2078 10.4678 9.01465C10.6609 8.8215 10.8141 8.59221 10.9187 8.33985C11.0232 8.08749 11.077 7.81702 11.077 7.54387C11.077 7.27072 11.0232 7.00024 10.9187 6.74789C10.8141 6.49553 10.6609 6.26623 10.4678 6.07308C10.2746 5.87994 10.0453 5.72673 9.79297 5.6222C9.54062 5.51767 9.27014 5.46387 8.99699 5.46387C8.44534 5.46387 7.91629 5.68301 7.52621 6.07308C7.13613 6.46316 6.91699 6.99222 6.91699 7.54387C6.91699 8.09552 7.13613 8.62457 7.52621 9.01465C7.91629 9.40473 8.44534 9.62387 8.99699 9.62387Z" stroke="#006BC9"/>
<path d="M3.41037 6.33057C4.72371 0.557241 13.277 0.563908 14.5837 6.33724C15.3504 9.72391 13.2437 12.5906 11.397 14.3639C10.7518 14.9863 9.89021 15.334 8.99371 15.334C8.0972 15.334 7.23566 14.9863 6.59037 14.3639C4.75037 12.5906 2.64371 9.71724 3.41037 6.33057Z" stroke="#006BC9"/>
</svg>
