<svg width="221" height="64" viewBox="0 0 221 64" fill="none" xmlns="http://www.w3.org/2000/svg">
<rect width="221" height="64" rx="8" fill="#F1F1F1"/>
<path d="M38.9188 32.7938C38.9062 30.5 39.9438 28.7687 42.0438 27.4937C40.8688 25.8125 39.0938 24.8875 36.75 24.7063C34.5312 24.5312 32.1062 26 31.2188 26C30.2812 26 28.1313 24.7688 26.4437 24.7688C22.9562 24.825 19.25 27.55 19.25 33.0938C19.25 34.7313 19.55 36.4229 20.15 38.1688C20.95 40.4625 23.8375 46.0875 26.85 45.9937C28.425 45.9562 29.5375 44.875 31.5875 44.875C33.575 44.875 34.6062 45.9937 36.3625 45.9937C39.4 45.95 42.0125 40.8375 42.775 38.5375C38.7 36.6187 38.9188 32.9125 38.9188 32.7938ZM35.3813 22.5312C37.0875 20.5062 36.9312 18.6625 36.8813 18C35.375 18.0875 33.6312 19.025 32.6375 20.1813C31.5437 21.4188 30.9 22.95 31.0375 24.675C32.6688 24.8 34.1562 23.9625 35.3813 22.5312Z" fill="#3D2C39"/>
<line x1="65.5" y1="12" x2="65.5" y2="52" stroke="#3D2C39"/>
<path d="M86.528 13.636C87.44 13.636 88.228 13.808 88.892 14.152C89.564 14.488 90.076 14.972 90.428 15.604C90.788 16.236 90.968 16.98 90.968 17.836C90.968 18.692 90.788 19.436 90.428 20.068C90.076 20.692 89.564 21.172 88.892 21.508C88.228 21.836 87.44 22 86.528 22H83.924V13.636H86.528ZM86.528 21.1C87.608 21.1 88.432 20.816 89 20.248C89.568 19.672 89.852 18.868 89.852 17.836C89.852 16.796 89.564 15.984 88.988 15.4C88.42 14.816 87.6 14.524 86.528 14.524H85.016V21.1H86.528ZM95.2764 22.108C94.6604 22.108 94.1004 21.968 93.5964 21.688C93.1004 21.408 92.7084 21.012 92.4204 20.5C92.1404 19.98 92.0004 19.38 92.0004 18.7C92.0004 18.028 92.1444 17.436 92.4324 16.924C92.7284 16.404 93.1284 16.008 93.6324 15.736C94.1364 15.456 94.7004 15.316 95.3244 15.316C95.9484 15.316 96.5124 15.456 97.0164 15.736C97.5204 16.008 97.9164 16.4 98.2044 16.912C98.5004 17.424 98.6484 18.02 98.6484 18.7C98.6484 19.38 98.4964 19.98 98.1924 20.5C97.8964 21.012 97.4924 21.408 96.9804 21.688C96.4684 21.968 95.9004 22.108 95.2764 22.108ZM95.2764 21.148C95.6684 21.148 96.0364 21.056 96.3804 20.872C96.7244 20.688 97.0004 20.412 97.2084 20.044C97.4244 19.676 97.5324 19.228 97.5324 18.7C97.5324 18.172 97.4284 17.724 97.2204 17.356C97.0124 16.988 96.7404 16.716 96.4044 16.54C96.0684 16.356 95.7044 16.264 95.3124 16.264C94.9124 16.264 94.5444 16.356 94.2084 16.54C93.8804 16.716 93.6164 16.988 93.4164 17.356C93.2164 17.724 93.1164 18.172 93.1164 18.7C93.1164 19.236 93.2124 19.688 93.4044 20.056C93.6044 20.424 93.8684 20.7 94.1964 20.884C94.5244 21.06 94.8844 21.148 95.2764 21.148ZM108.844 15.424L106.792 22H105.664L104.08 16.78L102.496 22H101.368L99.3042 15.424H100.42L101.932 20.944L103.564 15.424H104.68L106.276 20.956L107.764 15.424H108.844ZM113.132 15.304C113.932 15.304 114.58 15.548 115.076 16.036C115.572 16.516 115.82 17.212 115.82 18.124V22H114.74V18.28C114.74 17.624 114.576 17.124 114.248 16.78C113.92 16.428 113.472 16.252 112.904 16.252C112.328 16.252 111.868 16.432 111.524 16.792C111.188 17.152 111.02 17.676 111.02 18.364V22H109.928V15.424H111.02V16.36C111.236 16.024 111.528 15.764 111.896 15.58C112.272 15.396 112.684 15.304 113.132 15.304ZM118.696 13.12V22H117.604V13.12H118.696ZM123.425 22.108C122.809 22.108 122.249 21.968 121.745 21.688C121.249 21.408 120.857 21.012 120.569 20.5C120.289 19.98 120.149 19.38 120.149 18.7C120.149 18.028 120.293 17.436 120.581 16.924C120.877 16.404 121.277 16.008 121.781 15.736C122.285 15.456 122.849 15.316 123.473 15.316C124.097 15.316 124.661 15.456 125.165 15.736C125.669 16.008 126.065 16.4 126.353 16.912C126.649 17.424 126.797 18.02 126.797 18.7C126.797 19.38 126.645 19.98 126.341 20.5C126.045 21.012 125.641 21.408 125.129 21.688C124.617 21.968 124.049 22.108 123.425 22.108ZM123.425 21.148C123.817 21.148 124.185 21.056 124.529 20.872C124.873 20.688 125.149 20.412 125.357 20.044C125.573 19.676 125.681 19.228 125.681 18.7C125.681 18.172 125.577 17.724 125.369 17.356C125.161 16.988 124.889 16.716 124.553 16.54C124.217 16.356 123.853 16.264 123.461 16.264C123.061 16.264 122.693 16.356 122.357 16.54C122.029 16.716 121.765 16.988 121.565 17.356C121.365 17.724 121.265 18.172 121.265 18.7C121.265 19.236 121.361 19.688 121.553 20.056C121.753 20.424 122.017 20.7 122.345 20.884C122.673 21.06 123.033 21.148 123.425 21.148ZM127.825 18.688C127.825 18.016 127.961 17.428 128.233 16.924C128.505 16.412 128.877 16.016 129.349 15.736C129.829 15.456 130.361 15.316 130.945 15.316C131.521 15.316 132.021 15.44 132.445 15.688C132.869 15.936 133.185 16.248 133.393 16.624V15.424H134.497V22H133.393V20.776C133.177 21.16 132.853 21.48 132.421 21.736C131.997 21.984 131.501 22.108 130.933 22.108C130.349 22.108 129.821 21.964 129.349 21.676C128.877 21.388 128.505 20.984 128.233 20.464C127.961 19.944 127.825 19.352 127.825 18.688ZM133.393 18.7C133.393 18.204 133.293 17.772 133.093 17.404C132.893 17.036 132.621 16.756 132.277 16.564C131.941 16.364 131.569 16.264 131.161 16.264C130.753 16.264 130.381 16.36 130.045 16.552C129.709 16.744 129.441 17.024 129.241 17.392C129.041 17.76 128.941 18.192 128.941 18.688C128.941 19.192 129.041 19.632 129.241 20.008C129.441 20.376 129.709 20.66 130.045 20.86C130.381 21.052 130.753 21.148 131.161 21.148C131.569 21.148 131.941 21.052 132.277 20.86C132.621 20.66 132.893 20.376 133.093 20.008C133.293 19.632 133.393 19.196 133.393 18.7ZM135.934 18.688C135.934 18.016 136.07 17.428 136.342 16.924C136.614 16.412 136.986 16.016 137.458 15.736C137.938 15.456 138.474 15.316 139.066 15.316C139.578 15.316 140.054 15.436 140.494 15.676C140.934 15.908 141.27 16.216 141.502 16.6V13.12H142.606V22H141.502V20.764C141.286 21.156 140.966 21.48 140.542 21.736C140.118 21.984 139.622 22.108 139.054 22.108C138.47 22.108 137.938 21.964 137.458 21.676C136.986 21.388 136.614 20.984 136.342 20.464C136.07 19.944 135.934 19.352 135.934 18.688ZM141.502 18.7C141.502 18.204 141.402 17.772 141.202 17.404C141.002 17.036 140.73 16.756 140.386 16.564C140.05 16.364 139.678 16.264 139.27 16.264C138.862 16.264 138.49 16.36 138.154 16.552C137.818 16.744 137.55 17.024 137.35 17.392C137.15 17.76 137.05 18.192 137.05 18.688C137.05 19.192 137.15 19.632 137.35 20.008C137.55 20.376 137.818 20.66 138.154 20.86C138.49 21.052 138.862 21.148 139.27 21.148C139.678 21.148 140.05 21.052 140.386 20.86C140.73 20.66 141.002 20.376 141.202 20.008C141.402 19.632 141.502 19.196 141.502 18.7ZM150.519 22.108C149.903 22.108 149.343 21.968 148.839 21.688C148.343 21.408 147.951 21.012 147.663 20.5C147.383 19.98 147.243 19.38 147.243 18.7C147.243 18.028 147.387 17.436 147.675 16.924C147.971 16.404 148.371 16.008 148.875 15.736C149.379 15.456 149.943 15.316 150.567 15.316C151.191 15.316 151.755 15.456 152.259 15.736C152.763 16.008 153.159 16.4 153.447 16.912C153.743 17.424 153.891 18.02 153.891 18.7C153.891 19.38 153.739 19.98 153.435 20.5C153.139 21.012 152.735 21.408 152.223 21.688C151.711 21.968 151.143 22.108 150.519 22.108ZM150.519 21.148C150.911 21.148 151.279 21.056 151.623 20.872C151.967 20.688 152.243 20.412 152.451 20.044C152.667 19.676 152.775 19.228 152.775 18.7C152.775 18.172 152.671 17.724 152.463 17.356C152.255 16.988 151.983 16.716 151.647 16.54C151.311 16.356 150.947 16.264 150.555 16.264C150.155 16.264 149.787 16.356 149.451 16.54C149.123 16.716 148.859 16.988 148.659 17.356C148.459 17.724 148.359 18.172 148.359 18.7C148.359 19.236 148.455 19.688 148.647 20.056C148.847 20.424 149.111 20.7 149.439 20.884C149.767 21.06 150.127 21.148 150.519 21.148ZM158.53 15.304C159.33 15.304 159.978 15.548 160.474 16.036C160.97 16.516 161.218 17.212 161.218 18.124V22H160.138V18.28C160.138 17.624 159.974 17.124 159.646 16.78C159.318 16.428 158.87 16.252 158.302 16.252C157.726 16.252 157.266 16.432 156.922 16.792C156.586 17.152 156.418 17.676 156.418 18.364V22H155.326V15.424H156.418V16.36C156.634 16.024 156.926 15.764 157.294 15.58C157.67 15.396 158.082 15.304 158.53 15.304ZM167.533 16.324V20.2C167.533 20.52 167.601 20.748 167.737 20.884C167.873 21.012 168.109 21.076 168.445 21.076H169.249V22H168.265C167.657 22 167.201 21.86 166.897 21.58C166.593 21.3 166.441 20.84 166.441 20.2V16.324H165.589V15.424H166.441V13.768H167.533V15.424H169.249V16.324H167.533ZM173.836 15.304C174.332 15.304 174.78 15.412 175.18 15.628C175.58 15.836 175.892 16.152 176.116 16.576C176.348 17 176.464 17.516 176.464 18.124V22H175.384V18.28C175.384 17.624 175.22 17.124 174.892 16.78C174.564 16.428 174.116 16.252 173.548 16.252C172.972 16.252 172.512 16.432 172.168 16.792C171.832 17.152 171.664 17.676 171.664 18.364V22H170.572V13.12H171.664V16.36C171.88 16.024 172.176 15.764 172.552 15.58C172.936 15.396 173.364 15.304 173.836 15.304ZM184.248 18.46C184.248 18.668 184.236 18.888 184.212 19.12H178.956C178.996 19.768 179.216 20.276 179.616 20.644C180.024 21.004 180.516 21.184 181.092 21.184C181.564 21.184 181.956 21.076 182.268 20.86C182.588 20.636 182.812 20.34 182.94 19.972H184.116C183.94 20.604 183.588 21.12 183.06 21.52C182.532 21.912 181.876 22.108 181.092 22.108C180.468 22.108 179.908 21.968 179.412 21.688C178.924 21.408 178.54 21.012 178.26 20.5C177.98 19.98 177.84 19.38 177.84 18.7C177.84 18.02 177.976 17.424 178.248 16.912C178.52 16.4 178.9 16.008 179.388 15.736C179.884 15.456 180.452 15.316 181.092 15.316C181.716 15.316 182.268 15.452 182.748 15.724C183.228 15.996 183.596 16.372 183.852 16.852C184.116 17.324 184.248 17.86 184.248 18.46ZM183.12 18.232C183.12 17.816 183.028 17.46 182.844 17.164C182.66 16.86 182.408 16.632 182.088 16.48C181.776 16.32 181.428 16.24 181.044 16.24C180.492 16.24 180.02 16.416 179.628 16.768C179.244 17.12 179.024 17.608 178.968 18.232H183.12Z" fill="#3D2C39"/>
<path d="M90.952 44.872H86.504L85.768 47H83.416L87.432 35.816H90.04L94.056 47H91.688L90.952 44.872ZM90.344 43.08L88.728 38.408L87.112 43.08H90.344ZM97.7971 39.416C98.0851 39.0107 98.4798 38.6747 98.9811 38.408C99.4931 38.1307 100.074 37.992 100.725 37.992C101.482 37.992 102.165 38.1787 102.773 38.552C103.392 38.9253 103.877 39.4587 104.229 40.152C104.592 40.8347 104.773 41.6293 104.773 42.536C104.773 43.4427 104.592 44.248 104.229 44.952C103.877 45.6453 103.392 46.184 102.773 46.568C102.165 46.952 101.482 47.144 100.725 47.144C100.074 47.144 99.4985 47.0107 98.9971 46.744C98.5065 46.4773 98.1065 46.1413 97.7971 45.736V51.224H95.5571V38.136H97.7971V39.416ZM102.485 42.536C102.485 42.0027 102.373 41.544 102.149 41.16C101.936 40.7653 101.648 40.4667 101.285 40.264C100.933 40.0613 100.549 39.96 100.133 39.96C99.7278 39.96 99.3438 40.0667 98.9811 40.28C98.6291 40.4827 98.3411 40.7813 98.1171 41.176C97.9038 41.5707 97.7971 42.0347 97.7971 42.568C97.7971 43.1013 97.9038 43.5653 98.1171 43.96C98.3411 44.3547 98.6291 44.6587 98.9811 44.872C99.3438 45.0747 99.7278 45.176 100.133 45.176C100.549 45.176 100.933 45.0693 101.285 44.856C101.648 44.6427 101.936 44.3387 102.149 43.944C102.373 43.5493 102.485 43.08 102.485 42.536ZM108.641 39.416C108.929 39.0107 109.324 38.6747 109.825 38.408C110.337 38.1307 110.918 37.992 111.569 37.992C112.326 37.992 113.009 38.1787 113.617 38.552C114.236 38.9253 114.721 39.4587 115.073 40.152C115.436 40.8347 115.617 41.6293 115.617 42.536C115.617 43.4427 115.436 44.248 115.073 44.952C114.721 45.6453 114.236 46.184 113.617 46.568C113.009 46.952 112.326 47.144 111.569 47.144C110.918 47.144 110.342 47.0107 109.841 46.744C109.35 46.4773 108.95 46.1413 108.641 45.736V51.224H106.401V38.136H108.641V39.416ZM113.329 42.536C113.329 42.0027 113.217 41.544 112.993 41.16C112.78 40.7653 112.492 40.4667 112.129 40.264C111.777 40.0613 111.393 39.96 110.977 39.96C110.572 39.96 110.188 40.0667 109.825 40.28C109.473 40.4827 109.185 40.7813 108.961 41.176C108.748 41.5707 108.641 42.0347 108.641 42.568C108.641 43.1013 108.748 43.5653 108.961 43.96C109.185 44.3547 109.473 44.6587 109.825 44.872C110.188 45.0747 110.572 45.176 110.977 45.176C111.393 45.176 111.777 45.0693 112.129 44.856C112.492 44.6427 112.78 44.3387 112.993 43.944C113.217 43.5493 113.329 43.08 113.329 42.536ZM119.485 35.16V47H117.245V35.16H119.485ZM129.938 42.376C129.938 42.696 129.916 42.984 129.874 43.24H123.394C123.447 43.88 123.671 44.3813 124.066 44.744C124.46 45.1067 124.946 45.288 125.522 45.288C126.354 45.288 126.946 44.9307 127.298 44.216H129.714C129.458 45.0693 128.967 45.7733 128.242 46.328C127.516 46.872 126.626 47.144 125.57 47.144C124.716 47.144 123.948 46.9573 123.266 46.584C122.594 46.2 122.066 45.6613 121.682 44.968C121.308 44.2747 121.122 43.4747 121.122 42.568C121.122 41.6507 121.308 40.8453 121.682 40.152C122.055 39.4587 122.578 38.9253 123.25 38.552C123.922 38.1787 124.695 37.992 125.57 37.992C126.412 37.992 127.164 38.1733 127.826 38.536C128.498 38.8987 129.015 39.416 129.378 40.088C129.751 40.7493 129.938 41.512 129.938 42.376ZM127.618 41.736C127.607 41.16 127.399 40.7013 126.994 40.36C126.588 40.008 126.092 39.832 125.506 39.832C124.951 39.832 124.482 40.0027 124.098 40.344C123.724 40.6747 123.495 41.1387 123.41 41.736H127.618ZM139.241 47.112C138.463 47.112 137.759 46.9787 137.129 46.712C136.511 46.4453 136.02 46.0613 135.657 45.56C135.295 45.0587 135.108 44.4667 135.097 43.784H137.497C137.529 44.2427 137.689 44.6053 137.977 44.872C138.276 45.1387 138.681 45.272 139.193 45.272C139.716 45.272 140.127 45.1493 140.425 44.904C140.724 44.648 140.873 44.3173 140.873 43.912C140.873 43.5813 140.772 43.3093 140.569 43.096C140.367 42.8827 140.111 42.7173 139.801 42.6C139.503 42.472 139.087 42.3333 138.553 42.184C137.828 41.9707 137.236 41.7627 136.777 41.56C136.329 41.3467 135.94 41.032 135.609 40.616C135.289 40.1893 135.129 39.624 135.129 38.92C135.129 38.2587 135.295 37.6827 135.625 37.192C135.956 36.7013 136.42 36.328 137.017 36.072C137.615 35.8053 138.297 35.672 139.065 35.672C140.217 35.672 141.151 35.9547 141.865 36.52C142.591 37.0747 142.991 37.8533 143.065 38.856H140.601C140.58 38.472 140.415 38.1573 140.105 37.912C139.807 37.656 139.407 37.528 138.905 37.528C138.468 37.528 138.116 37.64 137.849 37.864C137.593 38.088 137.465 38.4133 137.465 38.84C137.465 39.1387 137.561 39.3893 137.753 39.592C137.956 39.784 138.201 39.944 138.489 40.072C138.788 40.1893 139.204 40.328 139.737 40.488C140.463 40.7013 141.055 40.9147 141.513 41.128C141.972 41.3413 142.367 41.6613 142.697 42.088C143.028 42.5147 143.193 43.0747 143.193 43.768C143.193 44.3653 143.039 44.92 142.729 45.432C142.42 45.944 141.967 46.3547 141.369 46.664C140.772 46.9627 140.063 47.112 139.241 47.112ZM147.743 39.976V44.264C147.743 44.5627 147.813 44.7813 147.951 44.92C148.101 45.048 148.346 45.112 148.687 45.112H149.727V47H148.319C146.431 47 145.487 46.0827 145.487 44.248V39.976H144.431V38.136H145.487V35.944H147.743V38.136H149.727V39.976H147.743ZM155.274 47.144C154.421 47.144 153.653 46.9573 152.97 46.584C152.288 46.2 151.749 45.6613 151.354 44.968C150.97 44.2747 150.778 43.4747 150.778 42.568C150.778 41.6613 150.976 40.8613 151.37 40.168C151.776 39.4747 152.325 38.9413 153.018 38.568C153.712 38.184 154.485 37.992 155.338 37.992C156.192 37.992 156.965 38.184 157.658 38.568C158.352 38.9413 158.896 39.4747 159.29 40.168C159.696 40.8613 159.898 41.6613 159.898 42.568C159.898 43.4747 159.69 44.2747 159.274 44.968C158.869 45.6613 158.314 46.2 157.61 46.584C156.917 46.9573 156.138 47.144 155.274 47.144ZM155.274 45.192C155.68 45.192 156.058 45.096 156.41 44.904C156.773 44.7013 157.061 44.4027 157.274 44.008C157.488 43.6133 157.594 43.1333 157.594 42.568C157.594 41.7253 157.37 41.08 156.922 40.632C156.485 40.1733 155.946 39.944 155.306 39.944C154.666 39.944 154.128 40.1733 153.69 40.632C153.264 41.08 153.05 41.7253 153.05 42.568C153.05 43.4107 153.258 44.0613 153.674 44.52C154.101 44.968 154.634 45.192 155.274 45.192ZM163.782 39.512C164.07 39.0427 164.443 38.6747 164.902 38.408C165.371 38.1413 165.904 38.008 166.502 38.008V40.36H165.91C165.206 40.36 164.672 40.5253 164.31 40.856C163.958 41.1867 163.782 41.7627 163.782 42.584V47H161.542V38.136H163.782V39.512ZM176.25 42.376C176.25 42.696 176.229 42.984 176.186 43.24H169.706C169.76 43.88 169.984 44.3813 170.378 44.744C170.773 45.1067 171.258 45.288 171.834 45.288C172.666 45.288 173.258 44.9307 173.61 44.216H176.026C175.77 45.0693 175.28 45.7733 174.554 46.328C173.829 46.872 172.938 47.144 171.882 47.144C171.029 47.144 170.261 46.9573 169.578 46.584C168.906 46.2 168.378 45.6613 167.994 44.968C167.621 44.2747 167.434 43.4747 167.434 42.568C167.434 41.6507 167.621 40.8453 167.994 40.152C168.368 39.4587 168.89 38.9253 169.562 38.552C170.234 38.1787 171.008 37.992 171.882 37.992C172.725 37.992 173.477 38.1733 174.138 38.536C174.81 38.8987 175.328 39.416 175.69 40.088C176.064 40.7493 176.25 41.512 176.25 42.376ZM173.93 41.736C173.92 41.16 173.712 40.7013 173.306 40.36C172.901 40.008 172.405 39.832 171.818 39.832C171.264 39.832 170.794 40.0027 170.41 40.344C170.037 40.6747 169.808 41.1387 169.722 41.736H173.93Z" fill="#3D2C39"/>
</svg>
