<svg width="221" height="64" viewBox="0 0 221 64" fill="none" xmlns="http://www.w3.org/2000/svg">
<rect width="221" height="64" rx="8" fill="#F1F1F1"/>
<path d="M35.3311 30.6438L21.5373 16.8125L39.0873 26.8875L35.3311 30.6438ZM17.9373 16C17.1248 16.425 16.5811 17.2 16.5811 18.2062V45.7875C16.5811 46.7938 17.1248 47.5688 17.9373 47.9937L33.9748 31.9937L17.9373 16ZM44.5123 30.1L40.8311 27.9688L36.7248 32L40.8311 36.0312L44.5873 33.9C45.7123 33.0063 45.7123 30.9938 44.5123 30.1ZM21.5373 47.1875L39.0873 37.1125L35.3311 33.3563L21.5373 47.1875Z" fill="#3D2C39"/>
<line x1="65.5" y1="12" x2="65.5" y2="52" stroke="#3D2C39"/>
<path d="M90.26 16.06C90.028 15.572 89.692 15.196 89.252 14.932C88.812 14.66 88.3 14.524 87.716 14.524C87.132 14.524 86.604 14.66 86.132 14.932C85.668 15.196 85.3 15.58 85.028 16.084C84.764 16.58 84.632 17.156 84.632 17.812C84.632 18.468 84.764 19.044 85.028 19.54C85.3 20.036 85.668 20.42 86.132 20.692C86.604 20.956 87.132 21.088 87.716 21.088C88.532 21.088 89.204 20.844 89.732 20.356C90.26 19.868 90.568 19.208 90.656 18.376H87.32V17.488H91.82V18.328C91.756 19.016 91.54 19.648 91.172 20.224C90.804 20.792 90.32 21.244 89.72 21.58C89.12 21.908 88.452 22.072 87.716 22.072C86.94 22.072 86.232 21.892 85.592 21.532C84.952 21.164 84.444 20.656 84.068 20.008C83.7 19.36 83.516 18.628 83.516 17.812C83.516 16.996 83.7 16.264 84.068 15.616C84.444 14.96 84.952 14.452 85.592 14.092C86.232 13.724 86.94 13.54 87.716 13.54C88.604 13.54 89.388 13.76 90.068 14.2C90.756 14.64 91.256 15.26 91.568 16.06H90.26ZM99.2638 18.46C99.2638 18.668 99.2518 18.888 99.2278 19.12H93.9718C94.0118 19.768 94.2318 20.276 94.6318 20.644C95.0398 21.004 95.5318 21.184 96.1078 21.184C96.5798 21.184 96.9718 21.076 97.2838 20.86C97.6038 20.636 97.8278 20.34 97.9558 19.972H99.1318C98.9558 20.604 98.6038 21.12 98.0758 21.52C97.5478 21.912 96.8918 22.108 96.1078 22.108C95.4838 22.108 94.9238 21.968 94.4278 21.688C93.9398 21.408 93.5558 21.012 93.2758 20.5C92.9958 19.98 92.8558 19.38 92.8558 18.7C92.8558 18.02 92.9918 17.424 93.2638 16.912C93.5358 16.4 93.9158 16.008 94.4038 15.736C94.8998 15.456 95.4678 15.316 96.1078 15.316C96.7318 15.316 97.2838 15.452 97.7638 15.724C98.2438 15.996 98.6118 16.372 98.8678 16.852C99.1318 17.324 99.2638 17.86 99.2638 18.46ZM98.1358 18.232C98.1358 17.816 98.0438 17.46 97.8598 17.164C97.6758 16.86 97.4238 16.632 97.1038 16.48C96.7918 16.32 96.4438 16.24 96.0598 16.24C95.5078 16.24 95.0358 16.416 94.6438 16.768C94.2598 17.12 94.0398 17.608 93.9838 18.232H98.1358ZM102.037 16.324V20.2C102.037 20.52 102.105 20.748 102.241 20.884C102.377 21.012 102.613 21.076 102.949 21.076H103.753V22H102.769C102.161 22 101.705 21.86 101.401 21.58C101.097 21.3 100.945 20.84 100.945 20.2V16.324H100.093V15.424H100.945V13.768H102.037V15.424H103.753V16.324H102.037ZM108.84 14.356C108.632 14.356 108.456 14.284 108.312 14.14C108.168 13.996 108.096 13.82 108.096 13.612C108.096 13.404 108.168 13.228 108.312 13.084C108.456 12.94 108.632 12.868 108.84 12.868C109.04 12.868 109.208 12.94 109.344 13.084C109.488 13.228 109.56 13.404 109.56 13.612C109.56 13.82 109.488 13.996 109.344 14.14C109.208 14.284 109.04 14.356 108.84 14.356ZM109.368 15.424V22H108.276V15.424H109.368ZM114.433 15.304C115.233 15.304 115.881 15.548 116.377 16.036C116.873 16.516 117.121 17.212 117.121 18.124V22H116.041V18.28C116.041 17.624 115.877 17.124 115.549 16.78C115.221 16.428 114.773 16.252 114.205 16.252C113.629 16.252 113.169 16.432 112.825 16.792C112.489 17.152 112.321 17.676 112.321 18.364V22H111.229V15.424H112.321V16.36C112.537 16.024 112.829 15.764 113.197 15.58C113.573 15.396 113.985 15.304 114.433 15.304ZM124.972 22.108C124.356 22.108 123.796 21.968 123.292 21.688C122.796 21.408 122.404 21.012 122.116 20.5C121.836 19.98 121.696 19.38 121.696 18.7C121.696 18.028 121.84 17.436 122.128 16.924C122.424 16.404 122.824 16.008 123.328 15.736C123.832 15.456 124.396 15.316 125.02 15.316C125.644 15.316 126.208 15.456 126.712 15.736C127.216 16.008 127.612 16.4 127.9 16.912C128.196 17.424 128.344 18.02 128.344 18.7C128.344 19.38 128.192 19.98 127.888 20.5C127.592 21.012 127.188 21.408 126.676 21.688C126.164 21.968 125.596 22.108 124.972 22.108ZM124.972 21.148C125.364 21.148 125.732 21.056 126.076 20.872C126.42 20.688 126.696 20.412 126.904 20.044C127.12 19.676 127.228 19.228 127.228 18.7C127.228 18.172 127.124 17.724 126.916 17.356C126.708 16.988 126.436 16.716 126.1 16.54C125.764 16.356 125.4 16.264 125.008 16.264C124.608 16.264 124.24 16.356 123.904 16.54C123.576 16.716 123.312 16.988 123.112 17.356C122.912 17.724 122.812 18.172 122.812 18.7C122.812 19.236 122.908 19.688 123.1 20.056C123.3 20.424 123.564 20.7 123.892 20.884C124.22 21.06 124.58 21.148 124.972 21.148ZM132.983 15.304C133.783 15.304 134.431 15.548 134.927 16.036C135.423 16.516 135.671 17.212 135.671 18.124V22H134.591V18.28C134.591 17.624 134.427 17.124 134.099 16.78C133.771 16.428 133.323 16.252 132.755 16.252C132.179 16.252 131.719 16.432 131.375 16.792C131.039 17.152 130.871 17.676 130.871 18.364V22H129.779V15.424H130.871V16.36C131.087 16.024 131.379 15.764 131.747 15.58C132.123 15.396 132.535 15.304 132.983 15.304Z" fill="#3D2C39"/>
<path d="M91.88 39.192C91.624 38.7227 91.272 38.3653 90.824 38.12C90.376 37.8747 89.8533 37.752 89.256 37.752C88.5947 37.752 88.008 37.9013 87.496 38.2C86.984 38.4987 86.584 38.9253 86.296 39.48C86.008 40.0347 85.864 40.6747 85.864 41.4C85.864 42.1467 86.008 42.7973 86.296 43.352C86.5947 43.9067 87.0053 44.3333 87.528 44.632C88.0507 44.9307 88.6587 45.08 89.352 45.08C90.2053 45.08 90.904 44.856 91.448 44.408C91.992 43.9493 92.3493 43.3147 92.52 42.504H88.68V40.792H94.728V42.744C94.5787 43.5227 94.2587 44.2427 93.768 44.904C93.2773 45.5653 92.6427 46.0987 91.864 46.504C91.096 46.8987 90.232 47.096 89.272 47.096C88.1947 47.096 87.2187 46.856 86.344 46.376C85.48 45.8853 84.7973 45.208 84.296 44.344C83.8053 43.48 83.56 42.4987 83.56 41.4C83.56 40.3013 83.8053 39.32 84.296 38.456C84.7973 37.5813 85.48 36.904 86.344 36.424C87.2187 35.9333 88.1893 35.688 89.256 35.688C90.5147 35.688 91.608 35.9973 92.536 36.616C93.464 37.224 94.104 38.0827 94.456 39.192H91.88ZM100.321 47.144C99.4679 47.144 98.6999 46.9573 98.0173 46.584C97.3346 46.2 96.7959 45.6613 96.4013 44.968C96.0173 44.2747 95.8253 43.4747 95.8253 42.568C95.8253 41.6613 96.0226 40.8613 96.4173 40.168C96.8226 39.4747 97.3719 38.9413 98.0653 38.568C98.7586 38.184 99.5319 37.992 100.385 37.992C101.239 37.992 102.012 38.184 102.705 38.568C103.399 38.9413 103.943 39.4747 104.337 40.168C104.743 40.8613 104.945 41.6613 104.945 42.568C104.945 43.4747 104.737 44.2747 104.321 44.968C103.916 45.6613 103.361 46.2 102.657 46.584C101.964 46.9573 101.185 47.144 100.321 47.144ZM100.321 45.192C100.727 45.192 101.105 45.096 101.457 44.904C101.82 44.7013 102.108 44.4027 102.321 44.008C102.535 43.6133 102.641 43.1333 102.641 42.568C102.641 41.7253 102.417 41.08 101.969 40.632C101.532 40.1733 100.993 39.944 100.353 39.944C99.7133 39.944 99.1746 40.1733 98.7373 40.632C98.3106 41.08 98.0973 41.7253 98.0973 42.568C98.0973 43.4107 98.3053 44.0613 98.7213 44.52C99.1479 44.968 99.6813 45.192 100.321 45.192ZM110.524 47.144C109.671 47.144 108.903 46.9573 108.22 46.584C107.538 46.2 106.999 45.6613 106.604 44.968C106.22 44.2747 106.028 43.4747 106.028 42.568C106.028 41.6613 106.226 40.8613 106.62 40.168C107.026 39.4747 107.575 38.9413 108.268 38.568C108.962 38.184 109.735 37.992 110.588 37.992C111.442 37.992 112.215 38.184 112.908 38.568C113.602 38.9413 114.146 39.4747 114.54 40.168C114.946 40.8613 115.148 41.6613 115.148 42.568C115.148 43.4747 114.94 44.2747 114.524 44.968C114.119 45.6613 113.564 46.2 112.86 46.584C112.167 46.9573 111.388 47.144 110.524 47.144ZM110.524 45.192C110.93 45.192 111.308 45.096 111.66 44.904C112.023 44.7013 112.311 44.4027 112.524 44.008C112.738 43.6133 112.844 43.1333 112.844 42.568C112.844 41.7253 112.62 41.08 112.172 40.632C111.735 40.1733 111.196 39.944 110.556 39.944C109.916 39.944 109.378 40.1733 108.94 40.632C108.514 41.08 108.3 41.7253 108.3 42.568C108.3 43.4107 108.508 44.0613 108.924 44.52C109.351 44.968 109.884 45.192 110.524 45.192ZM120.264 37.992C120.925 37.992 121.506 38.1253 122.008 38.392C122.509 38.648 122.904 38.984 123.192 39.4V38.136H125.448V47.064C125.448 47.8853 125.282 48.616 124.952 49.256C124.621 49.9067 124.125 50.4187 123.464 50.792C122.802 51.176 122.002 51.368 121.064 51.368C119.805 51.368 118.77 51.0747 117.96 50.488C117.16 49.9013 116.706 49.1013 116.6 48.088H118.824C118.941 48.4933 119.192 48.8133 119.576 49.048C119.97 49.2933 120.445 49.416 121 49.416C121.65 49.416 122.178 49.2187 122.584 48.824C122.989 48.44 123.192 47.8533 123.192 47.064V45.688C122.904 46.104 122.504 46.4507 121.992 46.728C121.49 47.0053 120.914 47.144 120.264 47.144C119.517 47.144 118.834 46.952 118.216 46.568C117.597 46.184 117.106 45.6453 116.743 44.952C116.391 44.248 116.215 43.4427 116.215 42.536C116.215 41.64 116.391 40.8453 116.743 40.152C117.106 39.4587 117.592 38.9253 118.2 38.552C118.818 38.1787 119.506 37.992 120.264 37.992ZM123.192 42.568C123.192 42.024 123.085 41.56 122.872 41.176C122.658 40.7813 122.37 40.4827 122.008 40.28C121.645 40.0667 121.256 39.96 120.84 39.96C120.424 39.96 120.04 40.0613 119.688 40.264C119.336 40.4667 119.048 40.7653 118.824 41.16C118.61 41.544 118.504 42.0027 118.504 42.536C118.504 43.0693 118.61 43.5387 118.824 43.944C119.048 44.3387 119.336 44.6427 119.688 44.856C120.05 45.0693 120.434 45.176 120.84 45.176C121.256 45.176 121.645 45.0747 122.008 44.872C122.37 44.6587 122.658 44.36 122.872 43.976C123.085 43.5813 123.192 43.112 123.192 42.568ZM129.875 35.16V47H127.635V35.16H129.875ZM140.328 42.376C140.328 42.696 140.307 42.984 140.264 43.24H133.784C133.838 43.88 134.062 44.3813 134.456 44.744C134.851 45.1067 135.336 45.288 135.912 45.288C136.744 45.288 137.336 44.9307 137.688 44.216H140.104C139.848 45.0693 139.358 45.7733 138.632 46.328C137.907 46.872 137.016 47.144 135.96 47.144C135.107 47.144 134.339 46.9573 133.656 46.584C132.984 46.2 132.456 45.6613 132.072 44.968C131.699 44.2747 131.512 43.4747 131.512 42.568C131.512 41.6507 131.699 40.8453 132.072 40.152C132.446 39.4587 132.968 38.9253 133.64 38.552C134.312 38.1787 135.086 37.992 135.96 37.992C136.803 37.992 137.555 38.1733 138.216 38.536C138.888 38.8987 139.406 39.416 139.768 40.088C140.142 40.7493 140.328 41.512 140.328 42.376ZM138.008 41.736C137.998 41.16 137.79 40.7013 137.384 40.36C136.979 40.008 136.483 39.832 135.896 39.832C135.342 39.832 134.872 40.0027 134.488 40.344C134.115 40.6747 133.886 41.1387 133.8 41.736H138.008ZM153.92 39.288C153.92 39.8853 153.776 40.4453 153.488 40.968C153.211 41.4907 152.768 41.912 152.16 42.232C151.563 42.552 150.805 42.712 149.888 42.712H148.016V47H145.776V35.832H149.888C150.752 35.832 151.488 35.9813 152.096 36.28C152.704 36.5787 153.157 36.9893 153.456 37.512C153.765 38.0347 153.92 38.6267 153.92 39.288ZM149.792 40.904C150.411 40.904 150.869 40.7653 151.168 40.488C151.467 40.2 151.616 39.8 151.616 39.288C151.616 38.2 151.008 37.656 149.792 37.656H148.016V40.904H149.792ZM157.75 35.16V47H155.51V35.16H157.75ZM159.387 42.536C159.387 41.64 159.563 40.8453 159.915 40.152C160.278 39.4587 160.763 38.9253 161.371 38.552C161.99 38.1787 162.678 37.992 163.435 37.992C164.097 37.992 164.673 38.1253 165.163 38.392C165.665 38.6587 166.065 38.9947 166.363 39.4V38.136H168.619V47H166.363V45.704C166.075 46.12 165.675 46.4667 165.163 46.744C164.662 47.0107 164.081 47.144 163.419 47.144C162.673 47.144 161.99 46.952 161.371 46.568C160.763 46.184 160.278 45.6453 159.915 44.952C159.563 44.248 159.387 43.4427 159.387 42.536ZM166.363 42.568C166.363 42.024 166.257 41.56 166.043 41.176C165.83 40.7813 165.542 40.4827 165.179 40.28C164.817 40.0667 164.427 39.96 164.011 39.96C163.595 39.96 163.211 40.0613 162.859 40.264C162.507 40.4667 162.219 40.7653 161.995 41.16C161.782 41.544 161.675 42.0027 161.675 42.536C161.675 43.0693 161.782 43.5387 161.995 43.944C162.219 44.3387 162.507 44.6427 162.859 44.856C163.222 45.0693 163.606 45.176 164.011 45.176C164.427 45.176 164.817 45.0747 165.179 44.872C165.542 44.6587 165.83 44.36 166.043 43.976C166.257 43.5813 166.363 43.112 166.363 42.568ZM179.287 38.136L173.799 51.192H171.415L173.335 46.776L169.783 38.136H172.295L174.583 44.328L176.903 38.136H179.287Z" fill="#3D2C39"/>
</svg>
